<?xml version="1.0" encoding="UTF-8"?>
<svg version="1.1" viewBox="0 0 2852 537" xmlns="http://www.w3.org/2000/svg">
<g transform="translate(25.8 993)" fill="#4d4d4d"><path d="m356-846q-22.7-21.2-52.4-33.3-29-11.3-60.9-11.3-68.4 0-117 48.5-48.5 48.5-48.5 117 0 68.7 48.5 117 48.5 48.5 117 48.5 31.9 0 60.9-11.7 29.7-11.7 52.4-32.9l69.8 74.7q-37.5 35.4-84.3 53.8-47.5 18.8-98.8 18.8-111 0-189-78.6-78.6-78.6-78.6-190 0-111 78.6-189 78.6-78.6 189-78.6 51.4 0 98.8 18.8 46.7 18.4 84.3 53.8z" fill="#4d4d4d"/></g>
<path d="m922 190-75.2 26.6a154 154 0 0 1 8.81 51.3 154 154 0 0 1-9.33 52.7l72.8 26.6 24.2-14.6c11.9-44.4 11.9-85 0-129z" fill="#fefe33"/>
<path d="m766 26.8-21.6 12-14.7 78.3a154 154 0 0 1 88.5 51.1l60.6-51.9-0.625-24.9c-32.5-32.5-67.6-52.8-112-64.7z" fill="#fb9902"/>
<path d="m878 91.5-68 68a154 154 0 0 1 39.8 68.9l92.9-24.9c-11.9-44.4-32.2-79.5-64.7-112z" fill="#fabc02"/>
<path d="m637 26.8c-44.4 11.9-79.5 32.2-112 64.7l-0.484 26.8 59.8 50.6a154 154 0 0 1 91.3-52.2l-12.7-73.9z" fill="#fe2712"/>
<path d="m702 17.9c-21.2 0-42.5 2.98-64.7 8.93l24.9 92.9a154 154 0 0 1 39.8-5.24 154 154 0 0 1 39.8 5.24l24.9-92.9c-22.2-5.95-43.5-8.93-64.7-8.93z" fill="#fd5308"/>
<path d="m488 185-27.8 18.7c-11.9 44.4-11.9 85 0 129l27.3 14.7 69.9-25.9a154 154 0 0 1-9.6-53.5 154 154 0 0 1 10.5-55.9z" fill="#8601af"/>
<path d="m525 91.5c-32.5 32.5-52.8 67.6-64.7 112l92.9 24.9a154 154 0 0 1 39.8-68.9z" fill="#a7194b"/>
<path d="m584 368-57.5 48.9-2.08 28.2c32.5 32.5 67.6 52.8 112 64.7l25.8-11.8 13.2-78.1a154 154 0 0 1-91.4-52z" fill="#0247fe"/>
<path d="m553 308-92.9 24.9c11.9 44.4 32.2 79.5 64.7 112l68-68a154 154 0 0 1-39.8-68.9z" fill="#3d01a4"/>
<path d="m818 368a154 154 0 0 1-89.6 51.2l13.4 75 24.2 15.1c44.4-11.9 79.5-32.2 112-64.7l-0.73-25.6z" fill="#66b032"/>
<path d="m662 417-24.9 92.9c44.4 11.9 85 11.9 129 0l-24.9-92.9a154 154 0 0 1-39.8 5.24 154 154 0 0 1-39.8-5.24z" fill="#0391ce"/>
<path d="m850 308a154 154 0 0 1-39.8 68.9l68 68c32.5-32.5 52.8-67.6 64.7-112z" fill="#d0ea2b"/>
<g transform="translate(25.8 993)" fill="#4d4d4d"><path d="m1069-982v411h266v103h-369v-514z" fill="#4d4d4d"/></g>
<g transform="translate(25.8 993)" fill="#4d4d4d"><path d="m1876-468v-513h195v-0.354q73.7 0 125 31.5 47.1 28.7 69.8 78.3 17.4 37.5 16.6 80-0.354 41.8-17.7 79.7-32.2 71.2-114 102 18.4 8.85 36.5 29l98.8 113h-136l-109-125h-62v125zm103-411v185h92.4q74 0 101-59.5 8.5-19.1 8.85-38.6 0-19.5-7.44-36.1-23-49.9-102-49.9v-0.354z" fill="#4d4d4d"/></g>
<path d="m1831 190-75.2 26.6a154 154 0 0 1 8.81 51.3 154 154 0 0 1-9.33 52.7l72.8 26.6 24.2-14.6c11.9-44.4 11.9-85 0-129z" fill="#fefe33"/>
<path d="m1676 26.8-21.6 12-14.7 78.3a154 154 0 0 1 88.5 51.1l60.6-51.9-0.625-24.9c-32.5-32.5-67.6-52.8-112-64.7z" fill="#fb9902"/>
<path d="m1788 91.5-68 68a154 154 0 0 1 39.8 68.9l92.9-24.9c-11.9-44.4-32.2-79.5-64.7-112z" fill="#fabc02"/>
<path d="m1546 26.8c-44.4 11.9-79.5 32.2-112 64.7l-0.484 26.8 59.8 50.6a154 154 0 0 1 91.3-52.2l-12.7-73.9z" fill="#fe2712"/>
<path d="m1611 17.9c-21.2 0-42.5 2.98-64.7 8.93l24.9 92.9a154 154 0 0 1 39.8-5.24 154 154 0 0 1 39.8 5.24l24.9-92.9c-22.2-5.95-43.5-8.93-64.7-8.93z" fill="#fd5308"/>
<path d="m1397 185-27.8 18.7c-11.9 44.4-11.9 85 0 129l27.3 14.7 69.9-25.9a154 154 0 0 1-9.6-53.5 154 154 0 0 1 10.5-55.9z" fill="#8601af"/>
<path d="m1434 91.5c-32.5 32.5-52.8 67.6-64.7 112l92.9 24.9a154 154 0 0 1 39.8-68.9z" fill="#a7194b"/>
<path d="m1494 368-57.5 48.9-2.08 28.2c32.5 32.5 67.6 52.8 112 64.7l25.8-11.8 13.2-78.1a154 154 0 0 1-91.4-52z" fill="#0247fe"/>
<path d="m1463 308-92.9 24.9c11.9 44.4 32.2 79.5 64.7 112l68-68a154 154 0 0 1-39.8-68.9z" fill="#3d01a4"/>
<path d="m1728 368a154 154 0 0 1-89.6 51.2l13.4 75 24.2 15.1c44.4-11.9 79.5-32.2 112-64.7l-0.73-25.6z" fill="#66b032"/>
<path d="m1571 417-24.9 92.9c44.4 11.9 85 11.9 129 0l-24.9-92.9a154 154 0 0 1-39.8 5.24 154 154 0 0 1-39.8-5.24z" fill="#0391ce"/>
<path d="m1760 308a154 154 0 0 1-39.8 68.9l68 68c32.5-32.5 52.8-67.6 64.7-112z" fill="#d0ea2b"/>
<path d="m2822 190-75.2 26.6a154 154 0 0 1 8.81 51.3 154 154 0 0 1-9.33 52.7l72.8 26.6 24.2-14.6c11.9-44.4 11.9-85 0-129z" fill="#fefe33"/>
<path d="m2667 26.8-21.6 12-14.7 78.3a154 154 0 0 1 88.5 51.1l60.6-51.9-0.625-24.9c-32.5-32.5-67.6-52.8-112-64.7z" fill="#fb9902"/>
<path d="m2779 91.5-68 68a154 154 0 0 1 39.8 68.9l92.9-24.9c-11.9-44.4-32.2-79.5-64.7-112z" fill="#fabc02"/>
<path d="m2537 26.8c-44.4 11.9-79.5 32.2-112 64.7l-0.484 26.8 59.8 50.6a154 154 0 0 1 91.3-52.2l-12.7-73.9z" fill="#fe2712"/>
<path d="m2602 17.9c-21.2 0-42.5 2.98-64.7 8.93l24.9 92.9a154 154 0 0 1 39.8-5.24 154 154 0 0 1 39.8 5.24l24.9-92.9c-22.2-5.95-43.5-8.93-64.7-8.93z" fill="#fd5308"/>
<path d="m2388 185-27.8 18.7c-11.9 44.4-11.9 85 0 129l27.3 14.7 69.9-25.9a154 154 0 0 1-9.6-53.5 154 154 0 0 1 10.5-55.9z" fill="#8601af"/>
<path d="m2425 91.5c-32.5 32.5-52.8 67.6-64.7 112l92.9 24.9a154 154 0 0 1 39.8-68.9z" fill="#a7194b"/>
<path d="m2485 368-57.5 48.9-2.08 28.2c32.5 32.5 67.6 52.8 112 64.7l25.8-11.8 13.2-78.1a154 154 0 0 1-91.4-52z" fill="#0247fe"/>
<path d="m2454 308-92.9 24.9c11.9 44.4 32.2 79.5 64.7 112l68-68a154 154 0 0 1-39.8-68.9z" fill="#3d01a4"/>
<path d="m2719 368a154 154 0 0 1-89.6 51.2l13.4 75 24.2 15.1c44.4-11.9 79.5-32.2 112-64.7l-0.73-25.6z" fill="#66b032"/>
<path d="m2562 417-24.9 92.9c44.4 11.9 85 11.9 129 0l-24.9-92.9a154 154 0 0 1-39.8 5.24 154 154 0 0 1-39.8-5.24z" fill="#0391ce"/>
<path d="m2751 308a154 154 0 0 1-39.8 68.9l68 68c32.5-32.5 52.8-67.6 64.7-112z" fill="#d0ea2b"/>
</svg>